Coordinates
version=1
nRows=9
nColumns=63
inDegrees=yes

Units are S.I. units (second, meters, Newtons, ...)
If the header above contains a line with 'inDegrees', this indicates whether rotational values are in degrees (yes) or radians (no).

endheader
time	pelvis_tilt	pelvis_list	pelvis_rotation	pelvis_tx	pelvis_ty	pelvis_tz	hip_flexion_r	hip_adduction_r	hip_rotation_r	knee_angle_r	knee_angle_r_beta	ankle_angle_r	subtalar_angle_r	mtp_angle_r	hip_flexion_l	hip_adduction_l	hip_rotation_l	knee_angle_l	knee_angle_l_beta	ankle_angle_l	subtalar_angle_l	mtp_angle_l	L5_S1_Flex_Ext	L5_S1_Lat_Bending	L5_S1_axial_rotation	L4_L5_Flex_Ext	L4_L5_Lat_Bending	L4_L5_axial_rotation	L3_L4_Flex_Ext	L3_L4_Lat_Bending	L3_L4_axial_rotation	L2_L3_Flex_Ext	L2_L3_Lat_Bending	L2_L3_axial_rotation	L1_L2_Flex_Ext	L1_L2_Lat_Bending	L1_L2_axial_rotation	L1_T12_Flex_Ext	L1_T12_Lat_Bending	L1_T12_axial_rotation	Abs_r3	Abs_r2	Abs_r1	Abs_t1	Abs_t2	neck_flexion	neck_bending	neck_rotation	arm_flex_r	arm_add_r	arm_rot_r	elbow_flex_r	pro_sup_r	wrist_flex_r	wrist_dev_r	arm_flex_l	arm_add_l	arm_rot_l	elbow_flex_l	pro_sup_l	wrist_flex_l	wrist_dev_l
      1.45833333	      0.41017991	     -5.61779228	     97.71303552	      0.47155399	      0.91019974	      0.87312650	     -6.82082014	      3.80939945	      5.77315108	      2.94980487	      0.05148381	     18.39923265	    -14.28209661	      0.00000000	     -4.80946424	     -4.23493002	     -0.75524701	      6.98752949	      0.12195540	     26.01956913	      5.89144818	      0.00000000	     -0.21593842	     -0.11850402	      0.42285556	     -0.40101924	     -0.15761035	      0.44928404	     -0.35476523	     -0.28813068	      0.44928404	     -0.24679602	     -0.28813068	      0.36999862	     -0.20052042	     -0.24165340	      0.34357014	     -0.12338721	     -0.18356273	      0.31714167	     -1.54242655	     -1.34054120	      2.35179578	      0.00000000	      0.00000000	     14.89082390	      0.82962070	     -6.38567042	      5.70977217	    -78.87663024	     71.05439045	      3.61750173	     13.81823528	     -8.21594615	      7.26268112	     58.16563558	    -73.69440076	     97.23112268	      0.96038378	     64.12350459	    -51.44945210	     12.75802237
      1.47916667	      0.41962661	     -5.70440171	     97.59363587	      0.47174625	      0.90977377	      0.87318028	     -6.67252902	      3.79103177	      5.11202331	      3.13619553	      0.05473694	     18.41065166	    -13.35413645	      0.00000000	     -4.75583321	     -4.21814784	     -0.74740625	      6.94337330	      0.12118473	     25.98192353	      5.59529130	      0.00000000	     -0.21219618	     -0.12666043	      0.55866026	     -0.39406953	     -0.16845837	      0.59357652	     -0.34861711	     -0.30796216	      0.59357652	     -0.24251902	     -0.30796216	      0.48882773	     -0.19704538	     -0.25828594	      0.45391146	     -0.12124890	     -0.19619700	      0.41899519	     -1.51569612	     -1.43280806	      3.10710076	      0.00000000	      0.00000000	     15.55783399	      0.61260033	     -7.23373093	      0.02043573	    -79.01651468	     61.13662425	      4.29180693	     15.44242803	     -8.35425191	      6.48130003	     60.07224503	    -72.85771183	     98.94271555	      0.96565423	     59.55222877	    -51.48561912	     11.26208948
      1.50000000	      0.36036985	     -5.84512233	     97.60675825	      0.47195165	      0.90933769	      0.87319719	     -6.51337207	      3.70808419	      4.42503740	      3.26087921	      0.05691308	     18.42070825	    -12.49206837	      0.00000000	     -4.64667834	     -4.13782742	     -0.39157880	      6.82769993	      0.11916584	     25.84695277	      5.04541992	      0.00000000	     -0.19078881	     -0.14491335	      0.64898340	     -0.35431390	     -0.19273475	      0.68954487	     -0.31344693	     -0.35234231	      0.68954487	     -0.21805253	     -0.35234231	      0.56786048	     -0.17716649	     -0.29550729	      0.52729902	     -0.10901673	     -0.22447077	      0.48673755	     -1.36278538	     -1.63928875	      3.60945100	      0.00000000	      0.00000000	     16.04535994	      0.29539088	     -8.08088409	     -4.51545860	    -78.94868355	     54.49465466	      4.64308717	     17.20577636	     -8.65581509	      6.22969105	     61.83118558	    -72.23366803	    102.80993312	      0.97503355	     53.87138839	    -51.20791576	      9.96596266
      1.52083333	      0.34210383	     -5.94218562	     97.45288143	      0.47221677	      0.90894175	      0.87327647	     -6.38167382	      3.64159412	      4.11943994	      3.40947926	      0.05950664	     18.35545482	    -11.94692094	      0.00000000	     -4.61297186	     -4.07925798	     -0.29176405	      6.66278459	      0.11628753	     25.74207160	      4.52740459	      0.00000000	     -0.16705246	     -0.15456512	      0.78076139	     -0.31023312	     -0.20557161	      0.82955897	     -0.27445048	     -0.37580964	      0.82955897	     -0.19092426	     -0.37580964	      0.68316621	     -0.15512491	     -0.31518920	      0.63436863	     -0.09545377	     -0.23942138	      0.58557104	     -1.19323901	     -1.74847158	      4.34236061	      0.00000000	      0.00000000	     16.28131517	     -0.25863763	     -9.06501849	     -9.51157408	    -78.84519011	     47.47394263	      4.96947941	     18.86216946	     -8.83491999	      5.67755937	     63.44594051	    -71.53450290	    105.85013998	      0.99753096	     50.23704647	    -50.76605201	      8.67674597
      1.54166667	      0.32345249	     -5.97890439	     97.32598040	      0.47241833	      0.90861158	      0.87320932	     -6.36166957	      3.60316021	      4.27814478	      3.45782176	      0.06035037	     18.12813238	    -12.10366665	      0.00000000	     -4.63208970	     -4.02638658	     -0.12018284	      6.53936612	      0.11413347	     25.69149221	      4.02674763	      0.00000000	     -0.14559049	     -0.16350634	      0.87597704	     -0.27037610	     -0.21746343	      0.93072561	     -0.23919062	     -0.39754932	      0.93072561	     -0.16639537	     -0.39754932	      0.76647991	     -0.13519533	     -0.33342213	      0.71173135	     -0.08319041	     -0.25327132	      0.65698278	     -1.03993832	     -1.84961643	      4.87192152	      0.00000000	      0.00000000	     16.29874908	     -0.66279848	     -9.89461759	    -12.65330895	    -78.72590751	     44.77595475	      5.02865497	     19.08240130	     -8.96594405	      4.95332681	     64.63062797	    -71.06533312	    108.42467308	      1.00821304	     48.00504056	    -50.34416329	      7.66351147
      1.56250000	      0.37172832	     -5.93904624	     97.23510326	      0.47252786	      0.90841480	      0.87299306	     -6.45184369	      3.64877782	      4.83534323	      3.39227175	      0.05920631	     17.87713319	    -12.68129680	      0.00000000	     -4.67337749	     -4.12723807	     -1.01707025	      6.56808237	      0.11463466	     25.98681139	      5.14596131	      0.00000000	     -0.13047222	     -0.16152070	      0.92248904	     -0.24229996	     -0.21482253	      0.98014461	     -0.21435281	     -0.39272143	      0.98014461	     -0.14911670	     -0.39272143	      0.80717791	     -0.12115650	     -0.32937301	      0.74952235	     -0.07455183	     -0.25019556	      0.69186678	     -0.93195001	     -1.82715446	      5.13060729	      0.00000000	      0.00000000	     16.19687258	     -0.86196559	    -10.34666376	    -14.10039796	    -78.79401203	     43.85554799	      5.23478821	     19.28085055	     -9.27710899	      3.94098936	     65.11666664	    -70.81362033	    108.29174869	      1.02097425	     48.91552458	    -50.24281774	      7.14106734
      1.58333333	      0.41622966	     -5.81230187	     97.14628286	      0.47235756	      0.90841251	      0.87233616	     -6.67629555	      3.68193837	      5.51710961	      3.21400331	      0.05609494	     17.83537003	    -13.15120150	      0.00000000	     -4.89094499	     -4.13049017	     -0.33337299	      6.45522224	      0.11266488	     25.89437065	      4.09661798	      0.00000000	     -0.12517873	     -0.15437063	      0.95338684	     -0.23246942	     -0.20531294	      1.01297351	     -0.20565613	     -0.37533676	      1.01297351	     -0.14306677	     -0.37533676	      0.83421348	     -0.11624097	     -0.31479259	      0.77462680	     -0.07152713	     -0.23912011	      0.71504013	     -0.89413914	     -1.74627147	      5.30245157	      0.00000000	      0.00000000	     15.94296415	     -0.88493645	    -10.47316989	    -13.20784110	    -78.90566550	     52.12008760	      4.58713551	     14.38872931	     -9.10674995	      3.30324365	     65.30407966	    -70.54015411	    106.36669113	      1.01446010	     52.92878123	    -50.34626012	      8.46432676
      1.60416667	      0.42717487	     -5.63503989	     97.06358224	      0.47226494	      0.90861636	      0.87168851	     -6.95306298	      3.67556168	      6.01342449	      3.00016495	      0.05236276	     17.95836051	    -13.17703356	      0.00000000	     -5.11526382	     -4.15638467	     -0.36565459	      6.46691380	      0.11286894	     25.97695859	      4.05367454	      0.00000000	     -0.13931201	     -0.15163483	      0.97053780	     -0.25871633	     -0.20167433	      1.03119641	     -0.22887569	     -0.36868494	      1.03119641	     -0.15921969	     -0.36868494	      0.84922057	     -0.12936513	     -0.30921375	      0.78856196	     -0.07960288	     -0.23488236	      0.72790335	     -0.99509172	     -1.71532357	      5.39784007	      0.00000000	      0.00000000	     15.68598577	     -0.63819783	    -10.34020806	    -12.95008051	    -78.93417914	     52.62726643	      4.51035311	     14.13746373	     -9.22963428	      2.01330014	     65.25638229	    -70.36558609	    105.57201282	      0.95567250	     52.98094108	    -50.28606257	      8.73025841
      1.62500000	      0.44756521	     -5.56545458	     96.93999629	      0.47214356	      0.90870664	      0.87104070	     -7.12507098	      3.67470802	      7.20432360	      2.76884815	      0.04832552	     17.81341415	    -14.27588266	      0.00000000	     -5.18563997	     -4.17351612	     -0.49191500	      6.57664276	      0.11478407	     26.12020183	      4.07624130	      0.00000000	     -0.14681509	     -0.14662866	      0.93161294	     -0.27265030	     -0.19501611	      0.98983875	     -0.24120251	     -0.35651292	      0.98983875	     -0.16779497	     -0.35651292	      0.81516132	     -0.13633249	     -0.29900516	      0.75693552	     -0.08389014	     -0.22712779	      0.69870971	     -1.04868550	     -1.65869270	      5.18135170	      0.00000000	      0.00000000	     15.50302039	     -0.40251763	     -9.60492297	     -8.88466631	    -78.78858164	     65.98383668	      3.01996015	      7.45115037	     -8.88001319	      1.90176358	     64.15877220	    -70.54037824	     95.49993712	      0.96219586	     61.77283951	    -51.35007668	      8.36126547
